<?xml version="1.0" encoding="UTF-8" standalone="no"?>
<svg
   xmlns:dc="http://purl.org/dc/elements/1.1/"
   xmlns:cc="http://creativecommons.org/ns#"
   xmlns:rdf="http://www.w3.org/1999/02/22-rdf-syntax-ns#"
   xmlns:svg="http://www.w3.org/2000/svg"
   xmlns="http://www.w3.org/2000/svg"
   xmlns:xlink="http://www.w3.org/1999/xlink"
   xmlns:sodipodi="http://sodipodi.sourceforge.net/DTD/sodipodi-0.dtd"
   xmlns:inkscape="http://www.inkscape.org/namespaces/inkscape"
   version="1.0"
   width="460.87793"
   height="460.87793"
   id="svg2"
   inkscape:version="0.48.0 r9654"
   sodipodi:docname="vetlogo.svg">
  <metadata
     id="metadata19">
    <rdf:RDF>
      <cc:Work
         rdf:about="">
        <dc:format>image/svg+xml</dc:format>
        <dc:type
           rdf:resource="http://purl.org/dc/dcmitype/StillImage" />
        <dc:title />
      </cc:Work>
    </rdf:RDF>
  </metadata>
  <sodipodi:namedview
     pagecolor="#ffffff"
     bordercolor="#666666"
     borderopacity="1"
     objecttolerance="10"
     gridtolerance="10"
     guidetolerance="10"
     inkscape:pageopacity="0"
     inkscape:pageshadow="2"
     inkscape:window-width="1280"
     inkscape:window-height="975"
     id="namedview17"
     showgrid="false"
     inkscape:zoom="0.55797773"
     inkscape:cx="592.17062"
     inkscape:cy="44.033423"
     inkscape:window-x="-4"
     inkscape:window-y="-4"
     inkscape:window-maximized="1"
     inkscape:current-layer="svg2"
     units="mm" />
  <defs
     id="defs5">
    <linearGradient
       inkscape:collect="always"
       id="linearGradient3856">
      <stop
         style="stop-color:#ffffff;stop-opacity:1;"
         offset="0"
         id="stop3858" />
      <stop
         style="stop-color:#ffffff;stop-opacity:0;"
         offset="1"
         id="stop3860" />
    </linearGradient>
    <linearGradient
       id="linearGradient3929">
      <stop
         style="stop-color:#fd2d2d;stop-opacity:1;"
         offset="0"
         id="stop3931" />
      <stop
         style="stop-color:#b9111b;stop-opacity:1;"
         offset="1"
         id="stop3933" />
    </linearGradient>
    <inkscape:perspective
       sodipodi:type="inkscape:persp3d"
       inkscape:vp_x="0 : 0.5 : 1"
       inkscape:vp_y="0 : 1000 : 0"
       inkscape:vp_z="1 : 0.5 : 1"
       inkscape:persp3d-origin="0.5 : 0.33333333 : 1"
       id="perspective2830" />
    <inkscape:perspective
       id="perspective2845"
       inkscape:persp3d-origin="372.04724 : 350.78739 : 1"
       inkscape:vp_z="744.09448 : 526.18109 : 1"
       inkscape:vp_y="0 : 1000 : 0"
       inkscape:vp_x="0 : 526.18109 : 1"
       sodipodi:type="inkscape:persp3d" />
    <filter
       inkscape:collect="always"
       id="filter3857"
       color-interpolation-filters="sRGB">
      <feGaussianBlur
         inkscape:collect="always"
         stdDeviation="2.1954125"
         id="feGaussianBlur3859" />
    </filter>
    <filter
       inkscape:collect="always"
       id="filter3917"
       color-interpolation-filters="sRGB">
      <feGaussianBlur
         inkscape:collect="always"
         stdDeviation="1.8817821"
         id="feGaussianBlur3919" />
    </filter>
    <radialGradient
       inkscape:collect="always"
       xlink:href="#linearGradient3929"
       id="radialGradient3935"
       cx="-6.2732096"
       cy="74.549072"
       fx="-6.2732096"
       fy="74.549072"
       r="40.71936"
       gradientTransform="matrix(1,0,0,1.0001556,0,-0.01159627)"
       gradientUnits="userSpaceOnUse" />
    <radialGradient
       inkscape:collect="always"
       xlink:href="#linearGradient3929-7"
       id="radialGradient3935-1"
       cx="-6.2732096"
       cy="74.549072"
       fx="-6.2732096"
       fy="74.549072"
       r="40.71936"
       gradientTransform="matrix(1,0,0,1.0001556,0,-0.01159627)"
       gradientUnits="userSpaceOnUse" />
    <linearGradient
       id="linearGradient3929-7">
      <stop
         style="stop-color:#c1121c;stop-opacity:1;"
         offset="0"
         id="stop3931-4" />
      <stop
         style="stop-color:#c1121c;stop-opacity:1;"
         offset="1"
         id="stop3933-0" />
    </linearGradient>
    <radialGradient
       r="40.71936"
       fy="74.549072"
       fx="-6.2732096"
       cy="74.549072"
       cx="-6.2732096"
       gradientTransform="matrix(1,0,0,1.0001556,-45.476168,-74.814465)"
       gradientUnits="userSpaceOnUse"
       id="radialGradient3019"
       xlink:href="#linearGradient3929-7"
       inkscape:collect="always" />
    <radialGradient
       r="40.71936"
       fy="74.549072"
       fx="-6.2732096"
       cy="74.549072"
       cx="-6.2732096"
       gradientTransform="matrix(1,0,0,1.0001556,-45.476168,-74.814465)"
       gradientUnits="userSpaceOnUse"
       id="radialGradient3019-4"
       xlink:href="#linearGradient3929-7-8"
       inkscape:collect="always" />
    <linearGradient
       id="linearGradient3929-7-8">
      <stop
         style="stop-color:#c1121c;stop-opacity:1;"
         offset="0"
         id="stop3931-4-8" />
      <stop
         style="stop-color:#c1121c;stop-opacity:1;"
         offset="1"
         id="stop3933-0-2" />
    </linearGradient>
    <radialGradient
       r="40.71936"
       fy="74.549072"
       fx="-6.2732096"
       cy="74.549072"
       cx="-6.2732096"
       gradientTransform="matrix(1,0,0,1.0001556,-45.028121,-63.165254)"
       gradientUnits="userSpaceOnUse"
       id="radialGradient3821"
       xlink:href="#linearGradient3929-7-8"
       inkscape:collect="always" />
    <filter
       inkscape:collect="always"
       id="filter3844"
       color-interpolation-filters="sRGB">
      <feGaussianBlur
         inkscape:collect="always"
         stdDeviation="0.22133616"
         id="feGaussianBlur3846" />
    </filter>
    <linearGradient
       inkscape:collect="always"
       xlink:href="#linearGradient3856"
       id="linearGradient3862"
       x1="27.448307"
       y1="7.5714188"
       x2="48.766994"
       y2="78.138748"
       gradientUnits="userSpaceOnUse" />
    <radialGradient
       inkscape:collect="always"
       xlink:href="#linearGradient3929"
       id="radialGradient3880"
       gradientUnits="userSpaceOnUse"
       gradientTransform="matrix(1,0,0,1.0001556,0,-0.01159627)"
       cx="-6.2732096"
       cy="74.549072"
       fx="-6.2732096"
       fy="74.549072"
       r="40.71936" />
    <linearGradient
       inkscape:collect="always"
       xlink:href="#linearGradient3856"
       id="linearGradient3882"
       gradientUnits="userSpaceOnUse"
       x1="27.448307"
       y1="7.5714188"
       x2="48.766994"
       y2="78.138748" />
  </defs>
  <g
     id="g3864"
     transform="matrix(5.1284147,0,0,5.1284147,19.337501,22.774743)">
    <path
       style="fill:url(#radialGradient3880);fill-opacity:1;stroke:#000000;stroke-width:1.20000005;stroke-miterlimit:4;stroke-opacity:1;stroke-dasharray:none"
       id="path2189"
       transform="translate(47.142571,-33.67971)"
       d="m 33.846152,74.549072 a 40.119362,40.119362 0 1 1 -80.238723,0 40.119362,40.119362 0 1 1 80.238723,0 z"
       inkscape:connector-curvature="0" />
    <path
       style="fill:#ffffff;fill-opacity:1;stroke:#000000;stroke-width:1.20000005;stroke-linejoin:miter;stroke-miterlimit:4;stroke-opacity:1;stroke-dasharray:none"
       id="rect6747"
       d="m 9.0256114,23.839424 20.4999996,47.96875 22.71875,0 20.46875,-47.96875 -13.09375,0 -18,42.125 -1.5,0 -18,-42.125 -13.0937496,0 z"
       inkscape:connector-curvature="0" />
    <g
       transform="translate(-1.1676399,0.44804656)"
       id="g3033">
      <g
         transform="matrix(0.12083707,0,0,0.10361973,-1.9414184,-11.778122)"
         id="layer1"
         inkscape:label="Ebene 1">
        <g
           transform="matrix(0.8475922,0,0,0.8475922,13.886303,85.233317)"
           id="g3814">
          <path
             style="fill:#ffffff;fill-opacity:1;stroke:#000000;stroke-width:8.07400036;stroke-linecap:round;stroke-linejoin:round;stroke-miterlimit:4;stroke-opacity:1;stroke-dasharray:none"
             d="m 419.56965,85.676297 c -16.12583,0 -29.18899,12.463483 -29.18899,27.829653 0,8.62274 4.11187,16.33644 10.57431,21.43985 6.24991,171.66342 10.8006,339.79949 18.93142,515.36746 2.48285,-22.30591 6.83285,-126.49135 17.66446,-514.91336 6.82151,-5.09305 11.23216,-12.9959 11.23216,-21.89395 0,-15.36617 -13.08753,-27.829653 -29.21336,-27.829653 z"
             id="path2989"
             inkscape:connector-curvature="0"
             sodipodi:nodetypes="sscccss" />
          <path
             inkscape:connector-curvature="0"
             id="path2858"
             d="m 322.73643,174.99766 c -0.45653,-0.85228 -5.81823,-1.46696 -11.91432,-1.36624 -6.09613,0.10073 -11.92252,-0.41241 -12.9476,-1.14037 -1.02508,-0.72791 -1.88874,-0.0712 -1.91925,1.45943 -0.0439,2.20298 2.82749,2.76351 13.7781,2.68977 7.60847,-0.0512 13.45983,-0.79041 13.00307,-1.64259 z"
             style="fill:#000000"
             sodipodi:nodetypes="cscssc" />
          <path
             style="fill:#000000;stroke:none"
             d="m 356.16113,152.20671 c -22.07472,0.31406 -43.80784,9.69922 -45.65625,14.78125 2.84596,5.46073 39.60282,1.48575 10.21875,15.375 11.95435,7.83928 30.98493,5.93171 51.25,2.34375 38.10657,-3.54785 48.00118,-3.94206 79.40625,0 52.82222,4.86752 76.36801,81.50808 1.5625,94.21874 -8.61294,2.17424 -14.18578,1.31197 -20.90625,1.59375 l -0.375,29.1875 c 30.32476,1.41633 47.73343,-7.31712 65.8125,-15.78125 31.31,-18.79146 53.60066,-75.3864 1.1875,-118.65624 -19.37746,-16.61263 -70.29284,-22.1396 -124.3125,-20.90625 -5.80241,-1.62707 -12.00658,-2.24419 -18.1875,-2.15625 z m -19.0625,10.71875 c 0.48726,-0.0107 1.05806,0.0643 1.625,0.25 1.51183,0.49518 2.53925,1.55606 2.28125,2.34375 -0.258,0.78769 -1.70692,1.02643 -3.21875,0.53125 -1.51183,-0.49518 -2.53925,-1.55606 -2.28125,-2.34375 0.16125,-0.4923 0.78164,-0.76344 1.59375,-0.78125 z"
             id="path3762"
             inkscape:connector-curvature="0"
             sodipodi:nodetypes="sccccccccccscssssc" />
          <path
             style="fill:#000000;stroke:none"
             d="m 404.75,281.9375 c -28.51759,2.22622 -46.17591,7.96559 -58.5,18.53125 -45.31581,36.79169 -22.09589,83.10613 7.09375,100.625 21.82889,11.12076 37.49462,15.19945 55.625,14.9375 74.74737,2.44958 69.54353,50.9223 35.40625,65.5 -7.76006,1.90775 -11.18068,2.73354 -17.23567,2.98079 l -1.92058,24.01921 c 10.37106,0.45433 20.99243,-0.41704 37.28125,-7.84375 28.20959,-16.48825 52.86804,-61.76397 6.84375,-94.71875 -14.49551,-9.77522 -32.47485,-14.99426 -59.09855,-16.72119 -6.60008,-0.15977 -13.58638,-0.77956 -19.3702,-2.12261 -62.05429,-17.30002 -55.66434,-76.711 13.875,-75.96875 z"
             id="path3762-1"
             inkscape:connector-curvature="0"
             sodipodi:nodetypes="ccccccccccccc" />
          <path
             style="fill:#000000;stroke:none"
             d="m 411.97414,485.50084 1.57682,24.00716 c -46.68121,-1.34411 -56.93444,88.60655 48.51174,88.55175 -29.61702,10.97266 -52.37315,9.7578 -69.22787,1.86687 -29.58385,-11.21157 -45.31385,-59.89125 -26.80404,-89.19303 10.35306,-13.3251 17.42576,-23.00653 45.94335,-25.23275 z"
             id="path3762-1-4"
             inkscape:connector-curvature="0"
             sodipodi:nodetypes="cccccc" />
        </g>
      </g>
      <path
         sodipodi:type="arc"
         style="fill:#ffffff;fill-opacity:1;stroke:none"
         id="path3031"
         sodipodi:cx="33.771511"
         sodipodi:cy="11.563432"
         sodipodi:rx="0.44804657"
         sodipodi:ry="0.39204073"
         d="m 34.219558,11.563432 a 0.44804657,0.39204073 0 1 1 -0.896093,0 0.44804657,0.39204073 0 1 1 0.896093,0 z"
         transform="matrix(1.0625,0,0,0.89898474,-1.5424594,1.1086799)" />
    </g>
    <path
       transform="matrix(1.0085342,0,0,1,-0.68269806,0)"
       sodipodi:nodetypes="ccsssc"
       style="opacity:0.33457247;fill:url(#linearGradient3882);fill-opacity:1;stroke:none;filter:url(#filter3844)"
       id="path2189-9"
       d="m 79.995505,40.384878 c -39.819136,-20.016043 -36.783111,14.059445 -78.2225131,0 C 1.7713346,30.144545 5.9857937,19.96663 13.22623,12.725054 20.466668,5.4834784 30.643917,1.2674635 40.884248,1.2674635 c 10.240333,0 20.417582,4.2160149 27.658019,11.4575905 7.240437,7.241576 11.454855,17.419491 11.453238,27.659824 z"
       inkscape:connector-curvature="0" />
    <path
       transform="matrix(0.99654533,0,0,1,0.22405075,0)"
       inkscape:connector-curvature="0"
       id="path2189-1"
       d="M 41.787246,4.8327926 A 35.896053,37.052141 0 0 0 4.8516138,41.890141 35.896053,37.052141 0 0 0 8.9617862,58.975771 37.673439,38.88677 0 0 1 7.1723233,47.344844 37.673439,38.88677 0 0 1 64.854539,14.443459 35.896053,37.052141 0 0 0 41.787246,4.8327926 z"
       style="opacity:0.72118961;fill:#ffffff;fill-opacity:1;stroke:none;filter:url(#filter3857)" />
    <path
       inkscape:connector-curvature="0"
       id="path2189-1-9"
       d="M 77.468956,40.080944 A 37.052141,35.896053 0 0 1 40.411608,77.016576 37.052141,35.896053 0 0 1 23.325978,72.906404 38.88677,37.673439 0 0 0 34.956905,74.695867 38.88677,37.673439 0 0 0 67.85829,17.013651 37.052141,35.896053 0 0 1 77.468956,40.080944 z"
       style="opacity:0.47955388;fill:#4d4d4d;fill-opacity:1;stroke:none;filter:url(#filter3917)" />
  </g>
</svg>
